<svg width="2000" height="5635" viewBox="0 0 2000 5635" fill="none" xmlns="http://www.w3.org/2000/svg">
<g clip-path="url(#clip0)">
<path d="M1133.7 64.7415C794.456 137.964 257.5 200 0 95.7695V3250.72H2000V95.7689C1695.77 -15.2019 1596.86 -35.2293 1133.7 64.7415Z" fill="#F40056"/>
<path d="M942 117.598C432.5 57.1954 400.5 278 0 117.598V3357.72H2000V117.596C1458.5 -76.9999 1451.5 178 942 117.598Z" fill="white"/>
<path d="M1022.6 184.613C708.049 237.65 272.5 275.383 0 184.661V3462.88H2000V184.66C1701 91.93 1337.15 131.576 1022.6 184.613Z" fill="#41B853"/>
<path d="M1022.6 171.796C708.049 260.181 272.5 323.063 0 171.874V5635H2000V171.874C1701 17.34 1337.15 83.4102 1022.6 171.796Z" fill="#009DCE"/>
</g>
<defs>
<clipPath id="clip0">
<rect width="2000" height="5635" fill="white"/>
</clipPath>
</defs>
</svg>
